<svg width="240" height="240" viewBox="0 0 240 240" fill="none" xmlns="http://www.w3.org/2000/svg" role="img" aria-labelledby="title desc">
  <title id="title">Ayana icon</title>
  <desc id="desc">Colorful Ayana audio bars icon.</desc>
  <defs>
    <linearGradient id="g1" x1="21" y1="70" x2="78" y2="150" gradientUnits="userSpaceOnUse">
      <stop stop-color="#FFB000"/>
      <stop offset="1" stop-color="#F35A12"/>
    </linearGradient>
    <linearGradient id="g2" x1="84" y1="78" x2="84" y2="162" gradientUnits="userSpaceOnUse">
      <stop stop-color="#FFD11A"/>
      <stop offset="1" stop-color="#F58B00"/>
    </linearGradient>
    <linearGradient id="g3" x1="122" y1="50" x2="122" y2="188" gradientUnits="userSpaceOnUse">
      <stop stop-color="#00E08A"/>
      <stop offset="1" stop-color="#087B61"/>
    </linearGradient>
    <linearGradient id="g4" x1="160" y1="24" x2="160" y2="216" gradientUnits="userSpaceOnUse">
      <stop stop-color="#15C6C8"/>
      <stop offset="1" stop-color="#015B57"/>
    </linearGradient>
    <linearGradient id="g5" x1="202" y1="64" x2="202" y2="176" gradientUnits="userSpaceOnUse">
      <stop stop-color="#E4007F"/>
      <stop offset="1" stop-color="#52206F"/>
    </linearGradient>
  </defs>
  <path d="M42 78C22 89 12 104 12 124C12 144 24 160 41 175C46 180 54 176 54 169V85C54 78 48 75 42 78Z" fill="url(#g1)"/>
  <rect x="66" y="82" width="32" height="82" rx="16" fill="url(#g2)"/>
  <rect x="108" y="52" width="34" height="136" rx="17" fill="url(#g3)"/>
  <rect x="148" y="24" width="36" height="192" rx="18" fill="url(#g4)"/>
  <rect x="194" y="70" width="34" height="100" rx="17" fill="url(#g5)"/>
</svg>
